<?xml version="1.0" encoding="utf-8"?>
<!-- Generator: Adobe Illustrator 23.1.0, SVG Export Plug-In . SVG Version: 6.00 Build 0)  -->
<svg version="1.1" id="Capa_1" xmlns="http://www.w3.org/2000/svg" xmlns:xlink="http://www.w3.org/1999/xlink" x="0px" y="0px"
	 viewBox="0 0 230 49.6" style="enable-background:new 0 0 230 49.6;" xml:space="preserve">
<style type="text/css">
	.st0{fill-rule:evenodd;clip-rule:evenodd;fill:#FFFFFF;}
</style>
<path id="Forma_1" class="st0" d="M14.2,7.4c0-4,3.3-7.2,7.3-7.2c2.4,0,4.6,1.2,5.9,3.2c0.1,0.1,0.2,0.3,0.2,0.5
	c0,0.4-0.3,0.6-0.6,0.6c-0.2,0-0.3-0.1-0.4-0.2c-1-1.8-3-2.9-5.1-2.9c-3.3-0.2-6.1,2.4-6.3,5.7c-0.2,3.3,2.4,6.1,5.7,6.3
	c0.2,0,0.4,0,0.6,0c3,0.1,5.7-2.1,5.9-5.1h-5.8c-0.3,0-0.5-0.3-0.5-0.6c0-0.3,0.2-0.5,0.5-0.5h6.7c0.3,0,0.5,0.1,0.5,0.4
	c0,0,0,0.1,0,0.1c-0.1,3.9-3.4,7-7.3,6.9l0,0C17.5,14.6,14.2,11.4,14.2,7.4z M39.4,13.9V1c0-0.3,0.1-0.5,0.4-0.5c0,0,0.1,0,0.1,0
	h5.7c2.3-0.1,4.2,1.7,4.2,4c0,0.1,0,0.1,0,0.2c0,1.9-1.4,3.6-3.3,3.9l3.2,5c0.1,0.1,0.1,0.2,0.1,0.3c0,0.3-0.2,0.6-0.6,0.6
	c0,0,0,0,0,0h0c-0.2,0-0.4-0.1-0.5-0.3l-3.4-5.5h-4.7v5.2c-0.1,0.4-0.4,0.6-0.8,0.5C39.7,14.4,39.4,14.2,39.4,13.9z M45.3,7.8
	c1.8,0.1,3.2-1.3,3.3-3.1c0,0,0,0,0,0c0-1.7-1.4-3.1-3.1-3.1c0,0,0,0,0,0h-4.8v6.2L45.3,7.8z M60.6,8.7V1c0-0.4,0.3-0.7,0.7-0.6
	c0.3,0,0.6,0.3,0.6,0.6v7.7c0,2.6,2.1,4.7,4.7,4.7c2.5-0.1,4.5-2.2,4.4-4.7c0,0,0,0,0,0c0,0,0,0,0,0V1c0.1-0.4,0.4-0.6,0.8-0.6
	c0.3,0,0.5,0.3,0.6,0.6v7.7c0,3.2-2.5,5.9-5.8,5.9C63.4,14.7,60.6,12,60.6,8.7z M85.1,9.2v4.7c0,0.4-0.3,0.7-0.6,0.7h0
	c-0.3,0-0.6-0.3-0.6-0.6c0,0,0,0,0,0c0,0,0,0,0-0.1V1.1c0-0.3,0.3-0.6,0.6-0.7c0,0,0,0,0,0H90c2.4,0,4.3,1.9,4.3,4.2
	c0,0.1,0,0.1,0,0.2c0,2.4-2,4.3-4.4,4.3h-0.1L85.1,9.2L85.1,9.2z M85.1,8.1h4.5c1.8,0.1,3.4-1.3,3.5-3.2c0-0.1,0-0.1,0-0.2
	c0-1.8-1.5-3.3-3.3-3.3l0,0h-4.7V8.1z M103.8,7.4c-0.1-4,3.2-7.4,7.2-7.4c4-0.1,7.4,3.2,7.4,7.2c0.1,4-3.2,7.4-7.2,7.4h-0.1
	C107.1,14.7,103.9,11.4,103.8,7.4L103.8,7.4z M111.2,1.5c3.3,0,5.9,2.7,5.9,6c0,3.3-2.7,5.9-6,5.9c-3.3,0-5.9-2.7-5.9-6
	C105.3,4.2,107.9,1.5,111.2,1.5L111.2,1.5z M0,25.5c0-0.8,0.6-1.4,1.4-1.4h8c5.6,0,9.4,3,9.4,7.9l0,0c0,5.4-4.5,8.2-9.8,8.2H2.8v7.6
	c0,0.8-0.6,1.4-1.4,1.4l0,0c-0.8,0-1.4-0.7-1.4-1.4V25.5z M9,37.7c4.2,0,6.9-2.2,6.9-5.5l0,0c0-3.6-2.7-5.4-6.7-5.4H2.8v11L9,37.7z
	 M20,47.3l10.2-22.2c0.3-0.8,1-1.3,1.8-1.2h0.1c0.8,0,1.5,0.5,1.7,1.2L44,47.2c0.1,0.2,0.2,0.5,0.2,0.7c0,0.7-0.6,1.3-1.3,1.4
	c0,0,0,0,0,0h0c-0.6,0-1.2-0.4-1.4-1l-2.6-5.8H25.1l-2.6,5.8c-0.2,0.6-0.7,1-1.4,1c-0.7,0-1.3-0.6-1.3-1.3l0,0
	C19.8,47.8,19.9,47.5,20,47.3L20,47.3z M37.7,39.9L32,27.1l-5.7,12.8H37.7L37.7,39.9z M49.6,25.5c0-0.8,0.6-1.4,1.4-1.4h9.4
	c2.6-0.1,5.2,0.7,7.1,2.5c1.3,1.3,2,3.1,1.9,5l0,0c0,4.1-2.8,6.5-6.7,7.3l6.2,8c0.3,0.3,0.5,0.7,0.5,1c0,0.8-0.7,1.4-1.4,1.4
	c-0.5,0-1-0.3-1.3-0.8l-7-9.2h-7.2v8.5c0,0.8-0.6,1.4-1.4,1.5c-0.8,0-1.4-0.6-1.5-1.4c0,0,0-0.1,0-0.1L49.6,25.5L49.6,25.5z
	 M60.1,36.9c3.7,0,6.4-1.9,6.4-5.2l0,0c0-3.1-2.4-5-6.4-5h-7.7v10.2L60.1,36.9L60.1,36.9z M73.9,47.3l10.2-22.2
	c0.3-0.8,1-1.3,1.8-1.2H86c0.8,0,1.5,0.5,1.7,1.2l10.2,22.2c0.1,0.2,0.2,0.5,0.2,0.7c0,0.7-0.6,1.3-1.3,1.4h0c-0.6,0-1.2-0.4-1.4-1
	l-2.6-5.8H79l-2.6,5.8c-0.2,0.6-0.7,1-1.4,1c-0.7,0-1.3-0.6-1.3-1.2c0,0,0,0,0,0c0,0,0,0,0,0C73.7,47.8,73.8,47.5,73.9,47.3
	L73.9,47.3z M91.5,39.9l-5.8-12.8l-5.7,12.8H91.5z M103.5,25.5c0-0.8,0.6-1.4,1.4-1.4h7.3c7.9,0,13.3,5.4,13.3,12.4l0,0
	c0,7-5.4,12.5-13.3,12.5h-7.3c-0.8,0-1.4-0.7-1.4-1.4V25.5L103.5,25.5z M112.1,46.6c6.3,0,10.4-4.3,10.4-9.8l0,0
	c0.1-5.4-4.1-9.9-9.5-10c-0.3,0-0.6,0-0.9,0h-5.9v19.8L112.1,46.6L112.1,46.6z M131.7,25.3c0-0.8,0.6-1.4,1.4-1.5
	c0.8,0,1.4,0.6,1.5,1.4c0,0,0,0.1,0,0.1v22.5c0,0.8-0.6,1.4-1.4,1.5c-0.8,0-1.4-0.6-1.5-1.4c0,0,0-0.1,0-0.1V25.3z M140.7,36.7
	L140.7,36.7c-0.2-6.9,5.2-12.7,12.2-13c0.1,0,0.2,0,0.4,0c3.1-0.1,6.1,0.8,8.6,2.7c0.4,0.3,0.6,0.7,0.6,1.1c0,0.8-0.6,1.4-1.4,1.4
	c-0.3,0-0.6-0.1-0.9-0.4c-2-1.6-4.4-2.4-7-2.3c-5.4,0.2-9.6,4.7-9.5,10.1c0,0.1,0,0.2,0,0.2l0,0c0,6,3.8,10.4,10,10.4
	c2.6,0,5.2-0.9,7.2-2.5v-6.2h-6.7c-0.7-0.1-1.2-0.7-1.1-1.4c0.1-0.6,0.5-1.1,1.1-1.1h8c0.8,0,1.4,0.7,1.4,1.4v7.8
	c0,0.7-0.4,1.3-1,1.7c-2.6,2-5.8,3-9.1,3c-6.8,0.3-12.5-4.9-12.9-11.6C140.7,37.5,140.7,37.1,140.7,36.7z M169.8,25.4
	c0-0.8,0.6-1.4,1.4-1.4h0.3c0.5,0,1,0.3,1.3,0.8l8.9,13.5l8.9-13.5c0.3-0.5,0.8-0.7,1.3-0.8h0.3c0.8,0,1.4,0.6,1.4,1.4v22.5
	c0,0.8-0.6,1.4-1.4,1.4c-0.8,0-1.4-0.6-1.4-1.4V29.2L183,41c-0.2,0.4-0.7,0.7-1.2,0.7c-0.5,0-1-0.3-1.2-0.7l-8-11.7v18.7
	c0.1,0.8-0.5,1.4-1.2,1.5s-1.4-0.5-1.5-1.2c0-0.1,0-0.2,0-0.3L169.8,25.4L169.8,25.4z M199.3,47.3l10.2-22.2c0.3-0.8,1-1.3,1.8-1.2
	h0.1c0.8,0,1.5,0.5,1.7,1.2l10.2,22.2c0.1,0.2,0.2,0.5,0.2,0.7c0,0.7-0.6,1.3-1.3,1.4c0,0,0,0,0,0c-0.6,0-1.2-0.4-1.4-1l-2.6-5.8
	h-13.7l-2.6,5.8c-0.2,0.6-0.7,1-1.4,1c-0.7,0-1.3-0.6-1.3-1.3c0,0,0,0,0,0v0C199.1,47.8,199.2,47.5,199.3,47.3L199.3,47.3z
	 M217,39.9l-5.7-12.8l-5.8,12.8H217L217,39.9z M225,24.9L225,24.9c-0.1-1.4,1-2.6,2.4-2.6c1.4-0.1,2.6,1,2.6,2.4c0,0.1,0,0.2,0,0.3
	l0,0c0,1.4-1.1,2.5-2.5,2.5C226.2,27.4,225,26.3,225,24.9C225,25,225,25,225,24.9C225,25,225,24.9,225,24.9z M229.7,24.9L229.7,24.9
	c0-1.2-0.9-2.2-2.2-2.2h-0.1c-1.2,0-2.2,1-2.2,2.2l0,0c-0.1,1.2,0.7,2.3,2,2.5s2.3-0.7,2.5-2C229.7,25.3,229.7,25.1,229.7,24.9
	L229.7,24.9z M226.5,23.8c0-0.1,0.1-0.2,0.2-0.2h0.9c0.3,0,0.5,0.1,0.7,0.3c0.1,0.1,0.2,0.3,0.2,0.5l0,0c0,0.4-0.3,0.7-0.6,0.7
	l0.6,0.8c0,0,0,0.1,0,0.1c0,0.1-0.1,0.2-0.2,0.2l0,0c-0.1,0-0.1,0-0.2,0l-0.7-0.9h-0.6V26c0,0.1-0.1,0.2-0.2,0.2
	c-0.1,0-0.2-0.1-0.2-0.2c0,0,0,0,0,0L226.5,23.8z M227.6,24.8c0.3,0.1,0.5-0.1,0.6-0.4c0,0,0,0,0-0.1l0,0c0-0.3-0.3-0.5-0.5-0.5
	c0,0,0,0,0,0h-0.7v0.9L227.6,24.8L227.6,24.8z"/>
</svg>
