<?xml version="1.0" encoding="utf-8"?>
<!-- Generator: Adobe Illustrator 23.1.0, SVG Export Plug-In . SVG Version: 6.00 Build 0)  -->
<svg version="1.1" id="Capa_1" xmlns="http://www.w3.org/2000/svg" xmlns:xlink="http://www.w3.org/1999/xlink" x="0px" y="0px"
	 viewBox="0 0 512 512" style="enable-background:new 0 0 512 512;" xml:space="preserve">
<style type="text/css">
	.st0{fill:#FFFFFF;}
</style>
<g>
	<g>
		<path class="st0" d="M463,121H49c-5,0-9,4-9,9c0,5,4,9,9,9h414c5,0,9-4,9-9C472,125,468,121,463,121z"/>
	</g>
</g>
<g>
	<g>
		<path class="st0" d="M463,247H74.3c-5,0-9,4-9,9s4,9,9,9H463c5,0,9-4,9-9S468,247,463,247z"/>
	</g>
</g>
<g>
	<g>
		<path class="st0" d="M463,373H99.6c-5,0-9,4-9,9s4,9,9,9H463c5,0,9-4,9-9C472,377,468,373,463,373z"/>
	</g>
</g>
</svg>
